RBDS017runT35_grf
version=1
nRows=30
nColumns=19
inDegrees=no
endheader
time	ground_force_r_vx	ground_force_r_vy	ground_force_r_vz	ground_force_r_px	ground_force_r_py	ground_force_r_pz	ground_force_r_mx	ground_force_r_my	ground_force_r_mz	ground_force_l_vx	ground_force_l_vy	ground_force_l_vz	ground_force_l_px	ground_force_l_py	ground_force_l_pz	ground_force_l_mx	ground_force_l_my	ground_force_l_mz
     22.49800000	      0.00000000	      0.00000000	      0.00000000	      0.00000000	      0.00000000	      0.00000000	      0.00000000	      0.00000000	      0.00000000	    160.07348846	   1656.38478474	    105.15141582	      2.01926395	      0.00000000	      0.89219015	      0.00000000	      6.24592423	     -0.00000000
     22.49900000	      0.00000000	      0.00000000	      0.00000000	      0.00000000	      0.00000000	      0.00000000	      0.00000000	      0.00000000	      0.00000000	    164.27486104	   1636.61715507	    103.39054709	      2.01620626	      0.00000000	      0.89211010	      0.00000000	      6.11180077	     -0.00000000
     22.50000000	      0.00000000	      0.00000000	      0.00000000	      0.00000000	      0.00000000	      0.00000000	      0.00000000	      0.00000000	      0.00000000	    168.47623363	   1616.84952541	    101.62967836	      2.01314857	      0.00000000	      0.89203006	      0.00000000	      5.97767731	     -0.00000000
     22.50100000	      0.00000000	      0.00000000	      0.00000000	      0.00000000	      0.00000000	      0.00000000	      0.00000000	      0.00000000	      0.00000000	    172.22700304	   1596.01836628	     99.79292766	      2.01007060	      0.00000000	      0.89196046	      0.00000000	      5.82202875	     -0.00000000
     22.50200000	      0.00000000	      0.00000000	      0.00000000	      0.00000000	      0.00000000	      0.00000000	      0.00000000	      0.00000000	      0.00000000	    175.97777245	   1575.18720715	     97.95617696	      2.00699263	      0.00000000	      0.89189086	      0.00000000	      5.66638018	     -0.00000000
     22.50300000	      0.00000000	      0.00000000	      0.00000000	      0.00000000	      0.00000000	      0.00000000	      0.00000000	      0.00000000	      0.00000000	    179.72854186	   1554.35604802	     96.11942627	      2.00391466	      0.00000000	      0.89182125	      0.00000000	      5.51073161	     -0.00000000
     22.50400000	      0.00000000	      0.00000000	      0.00000000	      0.00000000	      0.00000000	      0.00000000	      0.00000000	      0.00000000	      0.00000000	    183.15396921	   1532.89227939	     94.25296772	      2.00082428	      0.00000000	      0.89175932	      0.00000000	      5.34059316	     -0.00000000
     22.50500000	      0.00000000	      0.00000000	      0.00000000	      0.00000000	      0.00000000	      0.00000000	      0.00000000	      0.00000000	      0.00000000	    186.41672554	   1511.11220602	     92.37165524	      1.99772768	      0.00000000	      0.89170122	      0.00000000	      5.16320976	     -0.00000000
     22.50600000	      0.00000000	      0.00000000	      0.00000000	      0.00000000	      0.00000000	      0.00000000	      0.00000000	      0.00000000	      0.00000000	    189.67948186	   1489.33213264	     90.49034277	      1.99463108	      0.00000000	      0.89164313	      0.00000000	      4.98582636	     -0.00000000
     22.50700000	      0.00000000	      0.00000000	      0.00000000	      0.00000000	      0.00000000	      0.00000000	      0.00000000	      0.00000000	      0.00000000	    192.76858208	   1467.27742804	     88.60472964	      1.99152941	      0.00000000	      0.89158928	      0.00000000	      4.80114739	     -0.00000000
     22.50800000	      0.00000000	      0.00000000	      0.00000000	      0.00000000	      0.00000000	      0.00000000	      0.00000000	      0.00000000	      0.00000000	    195.51037009	   1444.67346100	     86.71051521	      1.98841760	      0.00000000	      0.89154392	      0.00000000	      4.60187727	     -0.00000000
     22.50900000	      0.00000000	      0.00000000	      0.00000000	      0.00000000	      0.00000000	      0.00000000	      0.00000000	      0.00000000	      0.00000000	    198.25215810	   1422.06949396	     84.81630077	      1.98530579	      0.00000000	      0.89149857	      0.00000000	      4.40260716	     -0.00000000
     22.51000000	      0.00000000	      0.00000000	      0.00000000	      0.00000000	      0.00000000	      0.00000000	      0.00000000	      0.00000000	      0.00000000	    200.99394611	   1399.46552691	     82.92208634	      1.98219398	      0.00000000	      0.89145321	      0.00000000	      4.20333704	     -0.00000000
     22.51100000	      0.00000000	      0.00000000	      0.00000000	      0.00000000	      0.00000000	      0.00000000	      0.00000000	      0.00000000	      0.00000000	    203.18769271	   1376.17259869	     81.04603635	      1.97907210	      0.00000000	      0.89142203	      0.00000000	      3.98209416	     -0.00000000
     22.51200000	      0.00000000	      0.00000000	      0.00000000	      0.00000000	      0.00000000	      0.00000000	      0.00000000	      0.00000000	      0.00000000	    205.38143931	   1352.87967047	     79.16998636	      1.97595021	      0.00000000	      0.89139085	      0.00000000	      3.76085127	     -0.00000000
     22.51300000	      0.00000000	      0.00000000	      0.00000000	      0.00000000	      0.00000000	      0.00000000	      0.00000000	      0.00000000	      0.00000000	    207.57518591	   1329.58674225	     77.29393637	      1.97282832	      0.00000000	      0.89135967	      0.00000000	      3.53960839	     -0.00000000
     22.51400000	      0.00000000	      0.00000000	      0.00000000	      0.00000000	      0.00000000	      0.00000000	      0.00000000	      0.00000000	      0.00000000	    209.39034948	   1305.93053026	     75.44972331	      1.96970419	      0.00000000	      0.89133901	      0.00000000	      3.30371547	     -0.00000000
     22.51500000	      0.00000000	      0.00000000	      0.00000000	      0.00000000	      0.00000000	      0.00000000	      0.00000000	      0.00000000	      0.00000000	    211.01622153	   1282.09267640	     73.62142871	      1.96657893	      0.00000000	      0.89132361	      0.00000000	      3.06049752	     -0.00000000
     22.51600000	      0.00000000	      0.00000000	      0.00000000	      0.00000000	      0.00000000	      0.00000000	      0.00000000	      0.00000000	      0.00000000	    212.64209358	   1258.25482253	     71.79313410	      1.96345367	      0.00000000	      0.89130822	      0.00000000	      2.81727957	     -0.00000000
     22.51700000	      0.00000000	      0.00000000	      0.00000000	      0.00000000	      0.00000000	      0.00000000	      0.00000000	      0.00000000	      0.00000000	    214.07487708	   1234.28598582	     69.98986386	      1.96033001	      0.00000000	      0.89129867	      0.00000000	      2.56677285	     -0.00000000
     22.51800000	      0.00000000	      0.00000000	      0.00000000	      0.00000000	      0.00000000	      0.00000000	      0.00000000	      0.00000000	      0.00000000	    215.12148349	   1210.05518342	     68.23664235	      1.95720954	      0.00000000	      0.89130082	      0.00000000	      2.30168859	     -0.00000000
     22.51900000	      0.00000000	      0.00000000	      0.00000000	      0.00000000	      0.00000000	      0.00000000	      0.00000000	      0.00000000	      0.00000000	    216.16808990	   1185.82438101	     66.48342083	      1.95408906	      0.00000000	      0.89130297	      0.00000000	      2.03660434	     -0.00000000
     22.52000000	      0.00000000	      0.00000000	      0.00000000	      0.00000000	      0.00000000	      0.00000000	      0.00000000	      0.00000000	      0.00000000	    217.21469631	   1161.59357861	     64.73019931	      1.95096859	      0.00000000	      0.89130512	      0.00000000	      1.77152009	     -0.00000000
     22.52100000	      0.00000000	      0.00000000	      0.00000000	      0.00000000	      0.00000000	      0.00000000	      0.00000000	      0.00000000	      0.00000000	    217.68005869	   1137.12822033	     63.07640792	      1.94786229	      0.00000000	      0.89132669	      0.00000000	      1.48482491	     -0.00000000
     22.52200000	      0.00000000	      0.00000000	      0.00000000	      0.00000000	      0.00000000	      0.00000000	      0.00000000	      0.00000000	      0.00000000	    218.14542108	   1112.66286206	     61.42261653	      1.94475599	      0.00000000	      0.89134826	      0.00000000	      1.19812973	     -0.00000000
     22.52300000	      0.00000000	      0.00000000	      0.00000000	      0.00000000	      0.00000000	      0.00000000	      0.00000000	      0.00000000	      0.00000000	    218.61078347	   1088.19750379	     59.76882515	      1.94164969	      0.00000000	      0.89136982	      0.00000000	      0.91143455	     -0.00000000
     22.52400000	      0.00000000	      0.00000000	      0.00000000	      0.00000000	      0.00000000	      0.00000000	      0.00000000	      0.00000000	      0.00000000	    218.69405768	   1063.68439725	     58.19521230	      1.93855980	      0.00000000	      0.89140559	      0.00000000	      0.61062813	     -0.00000000
     22.52500000	      0.00000000	      0.00000000	      0.00000000	      0.00000000	      0.00000000	      0.00000000	      0.00000000	      0.00000000	      0.00000000	    218.58628780	   1039.14741658	     56.66168874	      1.93547812	      0.00000000	      0.89144846	      0.00000000	      0.30276609	     -0.00000000
     22.52600000	      0.00000000	      0.00000000	      0.00000000	      0.00000000	      0.00000000	      0.00000000	      0.00000000	      0.00000000	      0.00000000	    218.47851793	   1014.61043590	     55.12816517	      1.93239643	      0.00000000	      0.89149133	      0.00000000	     -0.00509596	     -0.00000000
     22.52700000	      0.00000000	      0.00000000	      0.00000000	      0.00000000	      0.00000000	      0.00000000	      0.00000000	      0.00000000	      0.00000000	    218.18588402	    990.10467876	     53.64036397	      1.92932672	      0.00000000	      0.89154191	      0.00000000	     -0.31978723	     -0.00000000
